{
    "asset" : {
        "generator" : "Khronos glTF Blender I/O v1.6.16",
        "version" : "2.0"
    },
    "scene" : 0,
    "scenes" : [
        {
            "name" : "Scene",
            "nodes" : [
                0
            ]
        }
    ],
    "nodes" : [
        {
            "mesh" : 0,
            "name" : "frequency generator",
            "rotation" : [
                0,
                0.9999856948852539,
                0,
                0.005350520368665457
            ],
            "scale" : [
                0.16984322667121887,
                0.06940041482448578,
                0.20719219744205475
            ]
        }
    ],
    "materials" : [
        {
            "doubleSided" : true,
            "name" : "body freq gen",
            "pbrMetallicRoughness" : {
                "baseColorFactor" : [
                    1,
                    0.7835378050804138,
                    0.49693307280540466,
                    1
                ],
                "metallicFactor" : 0,
                "roughnessFactor" : 0.5
            }
        },
        {
            "doubleSided" : true,
            "name" : "power",
            "pbrMetallicRoughness" : {
                "baseColorFactor" : [
                    0,
                    0,
                    0,
                    1
                ],
                "metallicFactor" : 0,
                "roughnessFactor" : 0.5
            }
        },
        {
            "doubleSided" : true,
            "name" : "colokan",
            "pbrMetallicRoughness" : {
                "baseColorFactor" : [
                    1,
                    0.9761347770690918,
                    0.7586096525192261,
                    1
                ],
                "metallicFactor" : 0.8607594966888428,
                "roughnessFactor" : 0.20000000298023224
            }
        },
        {
            "doubleSided" : true,
            "name" : "button",
            "pbrMetallicRoughness" : {
                "baseColorFactor" : [
                    0.9816115498542786,
                    0.9067515730857849,
                    1,
                    1
                ],
                "metallicFactor" : 0,
                "roughnessFactor" : 0.5
            }
        },
        {
            "doubleSided" : true,
            "name" : "screen",
            "pbrMetallicRoughness" : {
                "baseColorFactor" : [
                    0,
                    0,
                    0,
                    1
                ],
                "metallicFactor" : 0,
                "roughnessFactor" : 0.5
            }
        },
        {
            "doubleSided" : true,
            "name" : "front",
            "pbrMetallicRoughness" : {
                "baseColorFactor" : [
                    0.6038274765014648,
                    0.5906190872192383,
                    0.5149176120758057,
                    1
                ],
                "metallicFactor" : 0,
                "roughnessFactor" : 0.5
            }
        },
        {
            "doubleSided" : true,
            "name" : "switch bg",
            "pbrMetallicRoughness" : {
                "baseColorFactor" : [
                    0.8000000715255737,
                    0.018481381237506866,
                    0.018481381237506866,
                    1
                ],
                "metallicFactor" : 0,
                "roughnessFactor" : 0.5
            }
        },
        {
            "doubleSided" : true,
            "name" : "switch",
            "pbrMetallicRoughness" : {
                "baseColorFactor" : [
                    0.23301412165164948,
                    0.003176339203491807,
                    0.003176339203491807,
                    1
                ],
                "metallicFactor" : 0,
                "roughnessFactor" : 0.5
            }
        },
        {
            "doubleSided" : true,
            "name" : "power btn switch",
            "pbrMetallicRoughness" : {
                "baseColorFactor" : [
                    0.049548644572496414,
                    0.049548644572496414,
                    0.049548644572496414,
                    1
                ],
                "metallicFactor" : 0,
                "roughnessFactor" : 0.5
            }
        },
        {
            "doubleSided" : true,
            "name" : "bayangan atas",
            "pbrMetallicRoughness" : {
                "baseColorFactor" : [
                    0.6266599893569946,
                    0.49250414967536926,
                    0.31440532207489014,
                    1
                ],
                "metallicFactor" : 0,
                "roughnessFactor" : 0.5
            }
        }
    ],
    "meshes" : [
        {
            "name" : "Cube.001",
            "primitives" : [
                {
                    "attributes" : {
                        "POSITION" : 0,
                        "NORMAL" : 1,
                        "TEXCOORD_0" : 2
                    },
                    "indices" : 3,
                    "material" : 0
                },
                {
                    "attributes" : {
                        "POSITION" : 4,
                        "NORMAL" : 5,
                        "TEXCOORD_0" : 6
                    },
                    "indices" : 7,
                    "material" : 1
                },
                {
                    "attributes" : {
                        "POSITION" : 8,
                        "NORMAL" : 9,
                        "TEXCOORD_0" : 10
                    },
                    "indices" : 11,
                    "material" : 2
                },
                {
                    "attributes" : {
                        "POSITION" : 12,
                        "NORMAL" : 13,
                        "TEXCOORD_0" : 14
                    },
                    "indices" : 15,
                    "material" : 3
                },
                {
                    "attributes" : {
                        "POSITION" : 16,
                        "NORMAL" : 17,
                        "TEXCOORD_0" : 18
                    },
                    "indices" : 19,
                    "material" : 4
                },
                {
                    "attributes" : {
                        "POSITION" : 20,
                        "NORMAL" : 21,
                        "TEXCOORD_0" : 22
                    },
                    "indices" : 23,
                    "material" : 5
                },
                {
                    "attributes" : {
                        "POSITION" : 24,
                        "NORMAL" : 25,
                        "TEXCOORD_0" : 26
                    },
                    "indices" : 27,
                    "material" : 6
                },
                {
                    "attributes" : {
                        "POSITION" : 28,
                        "NORMAL" : 29,
                        "TEXCOORD_0" : 30
                    },
                    "indices" : 31,
                    "material" : 7
                },
                {
                    "attributes" : {
                        "POSITION" : 32,
                        "NORMAL" : 33,
                        "TEXCOORD_0" : 34
                    },
                    "indices" : 31,
                    "material" : 8
                },
                {
                    "attributes" : {
                        "POSITION" : 35,
                        "NORMAL" : 36,
                        "TEXCOORD_0" : 37
                    },
                    "indices" : 38,
                    "material" : 9
                }
            ]
        }
    ],
    "accessors" : [
        {
            "bufferView" : 0,
            "componentType" : 5126,
            "count" : 1284,
            "max" : [
                1.1003038883209229,
                3.2002487182617188,
                1.0762580633163452
            ],
            "min" : [
                -1.1003038883209229,
                -0.018639087677001953,
                -1.0578429698944092
            ],
            "type" : "VEC3"
        },
        {
            "bufferView" : 1,
            "componentType" : 5126,
            "count" : 1284,
            "type" : "VEC3"
        },
        {
            "bufferView" : 2,
            "componentType" : 5126,
            "count" : 1284,
            "type" : "VEC2"
        },
        {
            "bufferView" : 3,
            "componentType" : 5123,
            "count" : 2256,
            "type" : "SCALAR"
        },
        {
            "bufferView" : 4,
            "componentType" : 5126,
            "count" : 316,
            "max" : [
                0.5826889276504517,
                1.6780000925064087,
                1.0385675430297852
            ],
            "min" : [
                -0.8393568396568298,
                0.33615025877952576,
                -1.029720664024353
            ],
            "type" : "VEC3"
        },
        {
            "bufferView" : 5,
            "componentType" : 5126,
            "count" : 316,
            "type" : "VEC3"
        },
        {
            "bufferView" : 6,
            "componentType" : 5126,
            "count" : 316,
            "type" : "VEC2"
        },
        {
            "bufferView" : 7,
            "componentType" : 5123,
            "count" : 510,
            "type" : "SCALAR"
        },
        {
            "bufferView" : 8,
            "componentType" : 5126,
            "count" : 192,
            "max" : [
                0.5158990025520325,
                1.6907782554626465,
                1.0391055345535278
            ],
            "min" : [
                -0.8448750376701355,
                0.3232792317867279,
                -1.0304666757583618
            ],
            "type" : "VEC3"
        },
        {
            "bufferView" : 9,
            "componentType" : 5126,
            "count" : 192,
            "type" : "VEC3"
        },
        {
            "bufferView" : 10,
            "componentType" : 5126,
            "count" : 192,
            "type" : "VEC2"
        },
        {
            "bufferView" : 11,
            "componentType" : 5123,
            "count" : 288,
            "type" : "SCALAR"
        },
        {
            "bufferView" : 12,
            "componentType" : 5126,
            "count" : 1370,
            "max" : [
                0.9153406023979187,
                2.8987345695495605,
                -0.8933135867118835
            ],
            "min" : [
                -0.8825737833976746,
                1.3749550580978394,
                -1.0711299180984497
            ],
            "type" : "VEC3"
        },
        {
            "bufferView" : 13,
            "componentType" : 5126,
            "count" : 1370,
            "type" : "VEC3"
        },
        {
            "bufferView" : 14,
            "componentType" : 5126,
            "count" : 1370,
            "type" : "VEC2"
        },
        {
            "bufferView" : 15,
            "componentType" : 5123,
            "count" : 2448,
            "type" : "SCALAR"
        },
        {
            "bufferView" : 16,
            "componentType" : 5126,
            "count" : 4,
            "max" : [
                0.951444685459137,
                3.1062726974487305,
                -0.8779405951499939
            ],
            "min" : [
                0.37200847268104553,
                2.233120918273926,
                -0.9330821633338928
            ],
            "type" : "VEC3"
        },
        {
            "bufferView" : 17,
            "componentType" : 5126,
            "count" : 4,
            "type" : "VEC3"
        },
        {
            "bufferView" : 18,
            "componentType" : 5126,
            "count" : 4,
            "type" : "VEC2"
        },
        {
            "bufferView" : 19,
            "componentType" : 5123,
            "count" : 6,
            "type" : "SCALAR"
        },
        {
            "bufferView" : 20,
            "componentType" : 5126,
            "count" : 10,
            "max" : [
                0.9560643434524536,
                3.106313705444336,
                1.0297428369522095
            ],
            "min" : [
                -0.9506561160087585,
                0.1391620635986328,
                -0.9841626286506653
            ],
            "type" : "VEC3"
        },
        {
            "bufferView" : 21,
            "componentType" : 5126,
            "count" : 10,
            "type" : "VEC3"
        },
        {
            "bufferView" : 22,
            "componentType" : 5126,
            "count" : 10,
            "type" : "VEC2"
        },
        {
            "bufferView" : 23,
            "componentType" : 5123,
            "count" : 18,
            "type" : "SCALAR"
        },
        {
            "bufferView" : 24,
            "componentType" : 5126,
            "count" : 4,
            "max" : [
                0.5324628949165344,
                1.3213716745376587,
                1.0163239240646362
            ],
            "min" : [
                0.40532010793685913,
                1.2083429098129272,
                1.011849284172058
            ],
            "type" : "VEC3"
        },
        {
            "bufferView" : 25,
            "componentType" : 5126,
            "count" : 4,
            "type" : "VEC3"
        },
        {
            "bufferView" : 26,
            "componentType" : 5126,
            "count" : 4,
            "type" : "VEC2"
        },
        {
            "bufferView" : 27,
            "componentType" : 5123,
            "count" : 6,
            "type" : "SCALAR"
        },
        {
            "bufferView" : 28,
            "componentType" : 5126,
            "count" : 24,
            "max" : [
                0.4366512596607208,
                1.3160271644592285,
                1.023641586303711
            ],
            "min" : [
                0.4162340462207794,
                1.2111808061599731,
                1.0124627351760864
            ],
            "type" : "VEC3"
        },
        {
            "bufferView" : 29,
            "componentType" : 5126,
            "count" : 24,
            "type" : "VEC3"
        },
        {
            "bufferView" : 30,
            "componentType" : 5126,
            "count" : 24,
            "type" : "VEC2"
        },
        {
            "bufferView" : 31,
            "componentType" : 5123,
            "count" : 36,
            "type" : "SCALAR"
        },
        {
            "bufferView" : 32,
            "componentType" : 5126,
            "count" : 24,
            "max" : [
                -0.5558677315711975,
                0.8935657143592834,
                1.0250754356384277
            ],
            "min" : [
                -0.5823692083358765,
                0.808655858039856,
                1.0124627351760864
            ],
            "type" : "VEC3"
        },
        {
            "bufferView" : 33,
            "componentType" : 5126,
            "count" : 24,
            "type" : "VEC3"
        },
        {
            "bufferView" : 34,
            "componentType" : 5126,
            "count" : 24,
            "type" : "VEC2"
        },
        {
            "bufferView" : 35,
            "componentType" : 5126,
            "count" : 76,
            "max" : [
                1.0761418342590332,
                2.317282199859619,
                1.0716395378112793
            ],
            "min" : [
                -1.0761418342590332,
                -0.018639087677001953,
                -1
            ],
            "type" : "VEC3"
        },
        {
            "bufferView" : 36,
            "componentType" : 5126,
            "count" : 76,
            "type" : "VEC3"
        },
        {
            "bufferView" : 37,
            "componentType" : 5126,
            "count" : 76,
            "type" : "VEC2"
        },
        {
            "bufferView" : 38,
            "componentType" : 5123,
            "count" : 114,
            "type" : "SCALAR"
        }
    ],
    "bufferViews" : [
        {
            "buffer" : 0,
            "byteLength" : 15408,
            "byteOffset" : 0
        },
        {
            "buffer" : 0,
            "byteLength" : 15408,
            "byteOffset" : 15408
        },
        {
            "buffer" : 0,
            "byteLength" : 10272,
            "byteOffset" : 30816
        },
        {
            "buffer" : 0,
            "byteLength" : 4512,
            "byteOffset" : 41088
        },
        {
            "buffer" : 0,
            "byteLength" : 3792,
            "byteOffset" : 45600
        },
        {
            "buffer" : 0,
            "byteLength" : 3792,
            "byteOffset" : 49392
        },
        {
            "buffer" : 0,
            "byteLength" : 2528,
            "byteOffset" : 53184
        },
        {
            "buffer" : 0,
            "byteLength" : 1020,
            "byteOffset" : 55712
        },
        {
            "buffer" : 0,
            "byteLength" : 2304,
            "byteOffset" : 56732
        },
        {
            "buffer" : 0,
            "byteLength" : 2304,
            "byteOffset" : 59036
        },
        {
            "buffer" : 0,
            "byteLength" : 1536,
            "byteOffset" : 61340
        },
        {
            "buffer" : 0,
            "byteLength" : 576,
            "byteOffset" : 62876
        },
        {
            "buffer" : 0,
            "byteLength" : 16440,
            "byteOffset" : 63452
        },
        {
            "buffer" : 0,
            "byteLength" : 16440,
            "byteOffset" : 79892
        },
        {
            "buffer" : 0,
            "byteLength" : 10960,
            "byteOffset" : 96332
        },
        {
            "buffer" : 0,
            "byteLength" : 4896,
            "byteOffset" : 107292
        },
        {
            "buffer" : 0,
            "byteLength" : 48,
            "byteOffset" : 112188
        },
        {
            "buffer" : 0,
            "byteLength" : 48,
            "byteOffset" : 112236
        },
        {
            "buffer" : 0,
            "byteLength" : 32,
            "byteOffset" : 112284
        },
        {
            "buffer" : 0,
            "byteLength" : 12,
            "byteOffset" : 112316
        },
        {
            "buffer" : 0,
            "byteLength" : 120,
            "byteOffset" : 112328
        },
        {
            "buffer" : 0,
            "byteLength" : 120,
            "byteOffset" : 112448
        },
        {
            "buffer" : 0,
            "byteLength" : 80,
            "byteOffset" : 112568
        },
        {
            "buffer" : 0,
            "byteLength" : 36,
            "byteOffset" : 112648
        },
        {
            "buffer" : 0,
            "byteLength" : 48,
            "byteOffset" : 112684
        },
        {
            "buffer" : 0,
            "byteLength" : 48,
            "byteOffset" : 112732
        },
        {
            "buffer" : 0,
            "byteLength" : 32,
            "byteOffset" : 112780
        },
        {
            "buffer" : 0,
            "byteLength" : 12,
            "byteOffset" : 112812
        },
        {
            "buffer" : 0,
            "byteLength" : 288,
            "byteOffset" : 112824
        },
        {
            "buffer" : 0,
            "byteLength" : 288,
            "byteOffset" : 113112
        },
        {
            "buffer" : 0,
            "byteLength" : 192,
            "byteOffset" : 113400
        },
        {
            "buffer" : 0,
            "byteLength" : 72,
            "byteOffset" : 113592
        },
        {
            "buffer" : 0,
            "byteLength" : 288,
            "byteOffset" : 113664
        },
        {
            "buffer" : 0,
            "byteLength" : 288,
            "byteOffset" : 113952
        },
        {
            "buffer" : 0,
            "byteLength" : 192,
            "byteOffset" : 114240
        },
        {
            "buffer" : 0,
            "byteLength" : 912,
            "byteOffset" : 114432
        },
        {
            "buffer" : 0,
            "byteLength" : 912,
            "byteOffset" : 115344
        },
        {
            "buffer" : 0,
            "byteLength" : 608,
            "byteOffset" : 116256
        },
        {
            "buffer" : 0,
            "byteLength" : 228,
            "byteOffset" : 116864
        }
    ],
    "buffers" : [
        {
            "byteLength" : 117092,
            "uri" : "data:application/octet-stream;base64,"
        }
    ]
}
