{
    "asset" : {
        "generator" : "Khronos glTF Blender I/O v1.8.19",
        "version" : "2.0"
    },
    "scene" : 0,
    "scenes" : [
        {
            "name" : "Scene",
            "nodes" : [
                0
            ]
        }
    ],
    "nodes" : [
        {
            "mesh" : 0,
            "name" : "M Keyboard",
            "rotation" : [
                0,
                0.016199270263314247,
                0,
                -0.9998688101768494
            ],
            "scale" : [
                0.00685427850112319,
                0.00685427850112319,
                0.00685427850112319
            ]
        }
    ],
    "materials" : [
        {
            "doubleSided" : true,
            "name" : "10105_Computer_Keyboard_v1.005",
            "pbrMetallicRoughness" : {
                "baseColorTexture" : {
                    "index" : 0
                },
                "metallicFactor" : 0,
                "roughnessFactor" : 0.8999999761581421
            }
        }
    ],
    "meshes" : [
        {
            "name" : "10105_Computer Keyboard_v1_L3.002",
            "primitives" : [
                {
                    "attributes" : {
                        "POSITION" : 0,
                        "NORMAL" : 1,
                        "TEXCOORD_0" : 2
                    },
                    "indices" : 3,
                    "material" : 0
                }
            ]
        }
    ],
    "textures" : [
        {
            "sampler" : 0,
            "source" : 0
        }
    ],
    "images" : [
        {
            "bufferView" : 4,
            "mimeType" : "image/jpeg",
            "name" : "10105_Computer Keyboard_v1_Diffuse"
        }
    ],
    "accessors" : [
        {
            "bufferView" : 0,
            "componentType" : 5126,
            "count" : 62746,
            "max" : [
                24.826799392700195,
                1.9457000494003296,
                11.700200080871582
            ],
            "min" : [
                -24.768400192260742,
                0.000699999975040555,
                -11.640800476074219
            ],
            "type" : "VEC3"
        },
        {
            "bufferView" : 1,
            "componentType" : 5126,
            "count" : 62746,
            "type" : "VEC3"
        },
        {
            "bufferView" : 2,
            "componentType" : 5126,
            "count" : 62746,
            "type" : "VEC2"
        },
        {
            "bufferView" : 3,
            "componentType" : 5123,
            "count" : 91878,
            "type" : "SCALAR"
        }
    ],
    "bufferViews" : [
        {
            "buffer" : 0,
            "byteLength" : 752952,
            "byteOffset" : 0
        },
        {
            "buffer" : 0,
            "byteLength" : 752952,
            "byteOffset" : 752952
        },
        {
            "buffer" : 0,
            "byteLength" : 501968,
            "byteOffset" : 1505904
        },
        {
            "buffer" : 0,
            "byteLength" : 183756,
            "byteOffset" : 2007872
        },
        {
            "buffer" : 0,
            "byteLength" : 293237,
            "byteOffset" : 2191628
        }
    ],
    "samplers" : [
        {
            "magFilter" : 9729,
            "minFilter" : 9987
        }
    ],
    "buffers" : [
        {
            "byteLength" : 2484868,
            "uri" : "data:application/octet-stream;base64,"
        }
    ]
}
