{
    "asset" : {
        "generator" : "Khronos glTF Blender I/O v1.8.19",
        "version" : "2.0"
    },
    "scene" : 0,
    "scenes" : [
        {
            "name" : "Scene",
            "nodes" : [
                0
            ]
        }
    ],
    "nodes" : [
        {
            "mesh" : 0,
            "name" : "LCD Monitor",
            "rotation" : [
                0,
                -0.00048069661715999246,
                0,
                1
            ],
            "scale" : [
                0.011625525541603565,
                0.011625520884990692,
                0.011625525541603565
            ]
        }
    ],
    "materials" : [
        {
            "doubleSided" : true,
            "name" : "10120_LCD_Computer_Monitor_v01.002",
            "pbrMetallicRoughness" : {
                "baseColorTexture" : {
                    "index" : 0
                },
                "metallicFactor" : 0,
                "roughnessFactor" : 0.5
            }
        }
    ],
    "meshes" : [
        {
            "name" : "LCD Monitor.002",
            "primitives" : [
                {
                    "attributes" : {
                        "POSITION" : 0,
                        "NORMAL" : 1,
                        "TEXCOORD_0" : 2
                    },
                    "indices" : 3,
                    "material" : 0
                }
            ]
        }
    ],
    "textures" : [
        {
            "sampler" : 0,
            "source" : 0
        }
    ],
    "images" : [
        {
            "bufferView" : 4,
            "mimeType" : "image/jpeg",
            "name" : "10120_LCD_Computer_Monitor_v01_diffuse"
        }
    ],
    "accessors" : [
        {
            "bufferView" : 0,
            "componentType" : 5126,
            "count" : 2453,
            "max" : [
                21.951000213623047,
                35.88410186767578,
                3.9382998943328857
            ],
            "min" : [
                -21.951000213623047,
                -0.013899999670684338,
                -9.365799903869629
            ],
            "type" : "VEC3"
        },
        {
            "bufferView" : 1,
            "componentType" : 5126,
            "count" : 2453,
            "type" : "VEC3"
        },
        {
            "bufferView" : 2,
            "componentType" : 5126,
            "count" : 2453,
            "type" : "VEC2"
        },
        {
            "bufferView" : 3,
            "componentType" : 5123,
            "count" : 11184,
            "type" : "SCALAR"
        }
    ],
    "bufferViews" : [
        {
            "buffer" : 0,
            "byteLength" : 29436,
            "byteOffset" : 0
        },
        {
            "buffer" : 0,
            "byteLength" : 29436,
            "byteOffset" : 29436
        },
        {
            "buffer" : 0,
            "byteLength" : 19624,
            "byteOffset" : 58872
        },
        {
            "buffer" : 0,
            "byteLength" : 22368,
            "byteOffset" : 78496
        },
        {
            "buffer" : 0,
            "byteLength" : 104589,
            "byteOffset" : 100864
        }
    ],
    "samplers" : [
        {
            "magFilter" : 9729,
            "minFilter" : 9987
        }
    ],
    "buffers" : [
        {
            "byteLength" : 205456,
            "uri" : "data:application/octet-stream;base64,"
        }
    ]
}
