{
    "asset" : {
        "generator" : "Khronos glTF Blender I/O v1.8.19",
        "version" : "2.0"
    },
    "scene" : 0,
    "scenes" : [
        {
            "name" : "Scene",
            "nodes" : [
                0
            ]
        }
    ],
    "nodes" : [
        {
            "mesh" : 0,
            "name" : "Mouse",
            "rotation" : [
                0,
                0.7071068286895752,
                0,
                0.7071068286895752
            ],
            "scale" : [
                0.009702449664473534,
                0.009702452458441257,
                0.009702453389763832
            ],
            "translation" : [
                0,
                -0.0010000000474974513,
                0
            ]
        }
    ],
    "materials" : [
        {
            "doubleSided" : true,
            "name" : "_10106_Computer_Mouse_v1_L310106_Computer_Mouse_v1.003",
            "pbrMetallicRoughness" : {
                "baseColorTexture" : {
                    "index" : 0
                },
                "metallicFactor" : 0,
                "roughnessFactor" : 0.7697827219963074
            }
        }
    ],
    "meshes" : [
        {
            "name" : "10106_Computer Mouse_v1_L3.003",
            "primitives" : [
                {
                    "attributes" : {
                        "POSITION" : 0,
                        "NORMAL" : 1,
                        "TEXCOORD_0" : 2
                    },
                    "indices" : 3,
                    "material" : 0
                }
            ]
        }
    ],
    "textures" : [
        {
            "sampler" : 0,
            "source" : 0
        }
    ],
    "images" : [
        {
            "bufferView" : 4,
            "mimeType" : "image/jpeg",
            "name" : "10106_Computer Mouse_v1_Diffuse"
        }
    ],
    "accessors" : [
        {
            "bufferView" : 0,
            "componentType" : 5126,
            "count" : 9583,
            "max" : [
                7.301000118255615,
                4.303100109100342,
                3.315999984741211
            ],
            "min" : [
                -4.880899906158447,
                0,
                -4.406199932098389
            ],
            "type" : "VEC3"
        },
        {
            "bufferView" : 1,
            "componentType" : 5126,
            "count" : 9583,
            "type" : "VEC3"
        },
        {
            "bufferView" : 2,
            "componentType" : 5126,
            "count" : 9583,
            "type" : "VEC2"
        },
        {
            "bufferView" : 3,
            "componentType" : 5123,
            "count" : 48288,
            "type" : "SCALAR"
        }
    ],
    "bufferViews" : [
        {
            "buffer" : 0,
            "byteLength" : 114996,
            "byteOffset" : 0
        },
        {
            "buffer" : 0,
            "byteLength" : 114996,
            "byteOffset" : 114996
        },
        {
            "buffer" : 0,
            "byteLength" : 76664,
            "byteOffset" : 229992
        },
        {
            "buffer" : 0,
            "byteLength" : 96576,
            "byteOffset" : 306656
        },
        {
            "buffer" : 0,
            "byteLength" : 341543,
            "byteOffset" : 403232
        }
    ],
    "samplers" : [
        {
            "magFilter" : 9729,
            "minFilter" : 9987
        }
    ],
    "buffers" : [
        {
            "byteLength" : 744776,
            "uri" : "data:application/octet-stream;base64,"
        }
    ]
}
