{
    "asset" : {
        "generator" : "Khronos glTF Blender I/O v1.6.16",
        "version" : "2.0"
    },
    "scene" : 0,
    "scenes" : [
        {
            "name" : "Scene",
            "nodes" : [
                0
            ]
        }
    ],
    "nodes" : [
        {
            "mesh" : 0,
            "name" : "osiloskop",
            "rotation" : [
                0,
                -1,
                0,
                4.887620548288396e-07
            ],
            "scale" : [
                0.19213825464248657,
                0.09659747779369354,
                0.05491238087415695
            ],
            "translation" : [
                0,
                0.002451181411743164,
                0
            ]
        }
    ],
    "materials" : [
        {
            "doubleSided" : true,
            "name" : "colokan dalem",
            "pbrMetallicRoughness" : {
                "baseColorFactor" : [
                    0.800000011920929,
                    0.800000011920929,
                    0.800000011920929,
                    1
                ],
                "metallicFactor" : 0,
                "roughnessFactor" : 0.5
            }
        },
        {
            "doubleSided" : true,
            "name" : "colokan luar",
            "pbrMetallicRoughness" : {
                "baseColorFactor" : [
                    0.46719974279403687,
                    0.46719974279403687,
                    0.46719974279403687,
                    1
                ],
                "metallicFactor" : 0.6202531456947327,
                "roughnessFactor" : 0.19620254635810852
            }
        },
        {
            "doubleSided" : true,
            "name" : "bagian belakang",
            "pbrMetallicRoughness" : {
                "baseColorFactor" : [
                    0.08228273689746857,
                    0.09989874064922333,
                    0.1778884381055832,
                    1
                ],
                "metallicFactor" : 0,
                "roughnessFactor" : 0.4000000059604645
            }
        },
        {
            "doubleSided" : true,
            "name" : "bagian depan",
            "pbrMetallicRoughness" : {
                "baseColorFactor" : [
                    0.6038143634796143,
                    0.5935160517692566,
                    0.5173328518867493,
                    1
                ],
                "metallicFactor" : 0,
                "roughnessFactor" : 0.5
            }
        },
        {
            "doubleSided" : true,
            "name" : "tombol",
            "pbrMetallicRoughness" : {
                "baseColorFactor" : [
                    0.800000011920929,
                    0.800000011920929,
                    0.800000011920929,
                    1
                ],
                "metallicFactor" : 0,
                "roughnessFactor" : 0.5
            }
        },
        {
            "doubleSided" : true,
            "name" : "layar",
            "pbrMetallicRoughness" : {
                "baseColorFactor" : [
                    0.014669585041701794,
                    0.014669585041701794,
                    0.014669585041701794,
                    1
                ],
                "metallicFactor" : 0,
                "roughnessFactor" : 0.5
            }
        },
        {
            "doubleSided" : true,
            "name" : "tombol.1",
            "pbrMetallicRoughness" : {
                "baseColorFactor" : [
                    0.8000000715255737,
                    0.6440987586975098,
                    0.027565037831664085,
                    1
                ],
                "metallicFactor" : 0,
                "roughnessFactor" : 0.5
            }
        },
        {
            "doubleSided" : true,
            "name" : "tombol.2",
            "pbrMetallicRoughness" : {
                "baseColorFactor" : [
                    0.8000000715255737,
                    0.22040240466594696,
                    0.2427750527858734,
                    1
                ],
                "metallicFactor" : 0,
                "roughnessFactor" : 0.5
            }
        },
        {
            "doubleSided" : true,
            "name" : "tombol.3",
            "pbrMetallicRoughness" : {
                "baseColorFactor" : [
                    0.24699780344963074,
                    0.23543445765972137,
                    0.8000000715255737,
                    1
                ],
                "metallicFactor" : 0,
                "roughnessFactor" : 0.5
            }
        },
        {
            "doubleSided" : true,
            "name" : "bayangan belakang",
            "pbrMetallicRoughness" : {
                "baseColorFactor" : [
                    0.043511759489774704,
                    0.05231073871254921,
                    0.09083760529756546,
                    1
                ],
                "metallicFactor" : 0,
                "roughnessFactor" : 0.5
            }
        },
        {
            "doubleSided" : true,
            "name" : "colokan belakang",
            "pbrMetallicRoughness" : {
                "baseColorFactor" : [
                    0.0020634171087294817,
                    0.0020634171087294817,
                    0.0020634171087294817,
                    1
                ],
                "metallicFactor" : 0,
                "roughnessFactor" : 0.5
            }
        }
    ],
    "meshes" : [
        {
            "name" : "Cube",
            "primitives" : [
                {
                    "attributes" : {
                        "POSITION" : 0,
                        "NORMAL" : 1,
                        "TEXCOORD_0" : 2
                    },
                    "indices" : 3,
                    "material" : 0
                },
                {
                    "attributes" : {
                        "POSITION" : 4,
                        "NORMAL" : 5,
                        "TEXCOORD_0" : 6
                    },
                    "indices" : 7,
                    "material" : 1
                },
                {
                    "attributes" : {
                        "POSITION" : 8,
                        "NORMAL" : 9,
                        "TEXCOORD_0" : 10
                    },
                    "indices" : 11,
                    "material" : 2
                },
                {
                    "attributes" : {
                        "POSITION" : 12,
                        "NORMAL" : 13,
                        "TEXCOORD_0" : 14
                    },
                    "indices" : 15,
                    "material" : 3
                },
                {
                    "attributes" : {
                        "POSITION" : 16,
                        "NORMAL" : 17,
                        "TEXCOORD_0" : 18
                    },
                    "indices" : 19,
                    "material" : 4
                },
                {
                    "attributes" : {
                        "POSITION" : 20,
                        "NORMAL" : 21,
                        "TEXCOORD_0" : 22
                    },
                    "indices" : 23,
                    "material" : 5
                },
                {
                    "attributes" : {
                        "POSITION" : 24,
                        "NORMAL" : 25,
                        "TEXCOORD_0" : 26
                    },
                    "indices" : 27,
                    "material" : 6
                },
                {
                    "attributes" : {
                        "POSITION" : 28,
                        "NORMAL" : 29,
                        "TEXCOORD_0" : 30
                    },
                    "indices" : 31,
                    "material" : 7
                },
                {
                    "attributes" : {
                        "POSITION" : 32,
                        "NORMAL" : 33,
                        "TEXCOORD_0" : 34
                    },
                    "indices" : 31,
                    "material" : 8
                },
                {
                    "attributes" : {
                        "POSITION" : 35,
                        "NORMAL" : 36,
                        "TEXCOORD_0" : 37
                    },
                    "indices" : 38,
                    "material" : 9
                },
                {
                    "attributes" : {
                        "POSITION" : 39,
                        "NORMAL" : 40,
                        "TEXCOORD_0" : 41
                    },
                    "indices" : 42,
                    "material" : 10
                }
            ]
        }
    ],
    "accessors" : [
        {
            "bufferView" : 0,
            "componentType" : 5126,
            "count" : 176,
            "max" : [
                -0.3200918734073639,
                0.4144671559333801,
                -0.9578272700309753
            ],
            "min" : [
                -0.7312699556350708,
                0.33438897132873535,
                -1.1006338596343994
            ],
            "type" : "VEC3"
        },
        {
            "bufferView" : 1,
            "componentType" : 5126,
            "count" : 176,
            "type" : "VEC3"
        },
        {
            "bufferView" : 2,
            "componentType" : 5126,
            "count" : 176,
            "type" : "VEC2"
        },
        {
            "bufferView" : 3,
            "componentType" : 5123,
            "count" : 288,
            "type" : "SCALAR"
        },
        {
            "bufferView" : 4,
            "componentType" : 5126,
            "count" : 256,
            "max" : [
                -0.3032504916191101,
                0.45003747940063477,
                -0.9421541094779968
            ],
            "min" : [
                -0.748111367225647,
                0.2988186478614807,
                -1.0793583393096924
            ],
            "type" : "VEC3"
        },
        {
            "bufferView" : 5,
            "componentType" : 5126,
            "count" : 256,
            "type" : "VEC3"
        },
        {
            "bufferView" : 6,
            "componentType" : 5126,
            "count" : 256,
            "type" : "VEC2"
        },
        {
            "bufferView" : 7,
            "componentType" : 5123,
            "count" : 426,
            "type" : "SCALAR"
        },
        {
            "bufferView" : 8,
            "componentType" : 5126,
            "count" : 683,
            "max" : [
                1,
                2.0888772010803223,
                1.0759234428405762
            ],
            "min" : [
                -1,
                0.014696836471557617,
                -1.0793583393096924
            ],
            "type" : "VEC3"
        },
        {
            "bufferView" : 9,
            "componentType" : 5126,
            "count" : 683,
            "type" : "VEC3"
        },
        {
            "bufferView" : 10,
            "componentType" : 5126,
            "count" : 683,
            "type" : "VEC2"
        },
        {
            "bufferView" : 11,
            "componentType" : 5123,
            "count" : 1161,
            "type" : "SCALAR"
        },
        {
            "bufferView" : 12,
            "componentType" : 5126,
            "count" : 136,
            "max" : [
                1,
                2.0850703716278076,
                -0.27285638451576233
            ],
            "min" : [
                -1,
                0.014696836471557617,
                -1
            ],
            "type" : "VEC3"
        },
        {
            "bufferView" : 13,
            "componentType" : 5126,
            "count" : 136,
            "type" : "VEC3"
        },
        {
            "bufferView" : 14,
            "componentType" : 5126,
            "count" : 136,
            "type" : "VEC2"
        },
        {
            "bufferView" : 15,
            "componentType" : 5123,
            "count" : 216,
            "type" : "SCALAR"
        },
        {
            "bufferView" : 16,
            "componentType" : 5126,
            "count" : 1852,
            "max" : [
                0.9384258985519409,
                2.099182367324829,
                0.0950140580534935
            ],
            "min" : [
                -0.9109371900558472,
                0.6223854422569275,
                -1.1284570693969727
            ],
            "type" : "VEC3"
        },
        {
            "bufferView" : 17,
            "componentType" : 5126,
            "count" : 1852,
            "type" : "VEC3"
        },
        {
            "bufferView" : 18,
            "componentType" : 5126,
            "count" : 1852,
            "type" : "VEC2"
        },
        {
            "bufferView" : 19,
            "componentType" : 5123,
            "count" : 3330,
            "type" : "SCALAR"
        },
        {
            "bufferView" : 20,
            "componentType" : 5126,
            "count" : 4,
            "max" : [
                0.8439901471138,
                1.818015694618225,
                -0.8985455632209778
            ],
            "min" : [
                0.031145572662353516,
                0.4269068241119385,
                -0.8985455632209778
            ],
            "type" : "VEC3"
        },
        {
            "bufferView" : 21,
            "componentType" : 5126,
            "count" : 4,
            "type" : "VEC3"
        },
        {
            "bufferView" : 22,
            "componentType" : 5126,
            "count" : 4,
            "type" : "VEC2"
        },
        {
            "bufferView" : 23,
            "componentType" : 5123,
            "count" : 6,
            "type" : "SCALAR"
        },
        {
            "bufferView" : 24,
            "componentType" : 5126,
            "count" : 72,
            "max" : [
                -0.30078840255737305,
                1.2503973245620728,
                -0.8985454440116882
            ],
            "min" : [
                -0.3829767405986786,
                1.155920386314392,
                -0.9466316103935242
            ],
            "type" : "VEC3"
        },
        {
            "bufferView" : 25,
            "componentType" : 5126,
            "count" : 72,
            "type" : "VEC3"
        },
        {
            "bufferView" : 26,
            "componentType" : 5126,
            "count" : 72,
            "type" : "VEC2"
        },
        {
            "bufferView" : 27,
            "componentType" : 5123,
            "count" : 132,
            "type" : "SCALAR"
        },
        {
            "bufferView" : 28,
            "componentType" : 5126,
            "count" : 72,
            "max" : [
                -0.41104522347450256,
                1.2503973245620728,
                -0.8985454440116882
            ],
            "min" : [
                -0.4932335615158081,
                1.155920386314392,
                -0.9466316103935242
            ],
            "type" : "VEC3"
        },
        {
            "bufferView" : 29,
            "componentType" : 5126,
            "count" : 72,
            "type" : "VEC3"
        },
        {
            "bufferView" : 30,
            "componentType" : 5126,
            "count" : 72,
            "type" : "VEC2"
        },
        {
            "bufferView" : 31,
            "componentType" : 5123,
            "count" : 132,
            "type" : "SCALAR"
        },
        {
            "bufferView" : 32,
            "componentType" : 5126,
            "count" : 72,
            "max" : [
                -0.5213020443916321,
                1.2503973245620728,
                -0.8985454440116882
            ],
            "min" : [
                -0.6034902930259705,
                1.155920386314392,
                -0.9466316103935242
            ],
            "type" : "VEC3"
        },
        {
            "bufferView" : 33,
            "componentType" : 5126,
            "count" : 72,
            "type" : "VEC3"
        },
        {
            "bufferView" : 34,
            "componentType" : 5126,
            "count" : 72,
            "type" : "VEC2"
        },
        {
            "bufferView" : 35,
            "componentType" : 5126,
            "count" : 127,
            "max" : [
                1,
                1.566367268562317,
                1.0759234428405762
            ],
            "min" : [
                -0.9920819401741028,
                0.2022719383239746,
                0.5688038468360901
            ],
            "type" : "VEC3"
        },
        {
            "bufferView" : 36,
            "componentType" : 5126,
            "count" : 127,
            "type" : "VEC3"
        },
        {
            "bufferView" : 37,
            "componentType" : 5126,
            "count" : 127,
            "type" : "VEC2"
        },
        {
            "bufferView" : 38,
            "componentType" : 5123,
            "count" : 225,
            "type" : "SCALAR"
        },
        {
            "bufferView" : 39,
            "componentType" : 5126,
            "count" : 28,
            "max" : [
                0.9805233478546143,
                0.9074110984802246,
                0.59261554479599
            ],
            "min" : [
                0.870304524898529,
                0.734855055809021,
                0.538408637046814
            ],
            "type" : "VEC3"
        },
        {
            "bufferView" : 40,
            "componentType" : 5126,
            "count" : 28,
            "type" : "VEC3"
        },
        {
            "bufferView" : 41,
            "componentType" : 5126,
            "count" : 28,
            "type" : "VEC2"
        },
        {
            "bufferView" : 42,
            "componentType" : 5123,
            "count" : 54,
            "type" : "SCALAR"
        }
    ],
    "bufferViews" : [
        {
            "buffer" : 0,
            "byteLength" : 2112,
            "byteOffset" : 0
        },
        {
            "buffer" : 0,
            "byteLength" : 2112,
            "byteOffset" : 2112
        },
        {
            "buffer" : 0,
            "byteLength" : 1408,
            "byteOffset" : 4224
        },
        {
            "buffer" : 0,
            "byteLength" : 576,
            "byteOffset" : 5632
        },
        {
            "buffer" : 0,
            "byteLength" : 3072,
            "byteOffset" : 6208
        },
        {
            "buffer" : 0,
            "byteLength" : 3072,
            "byteOffset" : 9280
        },
        {
            "buffer" : 0,
            "byteLength" : 2048,
            "byteOffset" : 12352
        },
        {
            "buffer" : 0,
            "byteLength" : 852,
            "byteOffset" : 14400
        },
        {
            "buffer" : 0,
            "byteLength" : 8196,
            "byteOffset" : 15252
        },
        {
            "buffer" : 0,
            "byteLength" : 8196,
            "byteOffset" : 23448
        },
        {
            "buffer" : 0,
            "byteLength" : 5464,
            "byteOffset" : 31644
        },
        {
            "buffer" : 0,
            "byteLength" : 2322,
            "byteOffset" : 37108
        },
        {
            "buffer" : 0,
            "byteLength" : 1632,
            "byteOffset" : 39432
        },
        {
            "buffer" : 0,
            "byteLength" : 1632,
            "byteOffset" : 41064
        },
        {
            "buffer" : 0,
            "byteLength" : 1088,
            "byteOffset" : 42696
        },
        {
            "buffer" : 0,
            "byteLength" : 432,
            "byteOffset" : 43784
        },
        {
            "buffer" : 0,
            "byteLength" : 22224,
            "byteOffset" : 44216
        },
        {
            "buffer" : 0,
            "byteLength" : 22224,
            "byteOffset" : 66440
        },
        {
            "buffer" : 0,
            "byteLength" : 14816,
            "byteOffset" : 88664
        },
        {
            "buffer" : 0,
            "byteLength" : 6660,
            "byteOffset" : 103480
        },
        {
            "buffer" : 0,
            "byteLength" : 48,
            "byteOffset" : 110140
        },
        {
            "buffer" : 0,
            "byteLength" : 48,
            "byteOffset" : 110188
        },
        {
            "buffer" : 0,
            "byteLength" : 32,
            "byteOffset" : 110236
        },
        {
            "buffer" : 0,
            "byteLength" : 12,
            "byteOffset" : 110268
        },
        {
            "buffer" : 0,
            "byteLength" : 864,
            "byteOffset" : 110280
        },
        {
            "buffer" : 0,
            "byteLength" : 864,
            "byteOffset" : 111144
        },
        {
            "buffer" : 0,
            "byteLength" : 576,
            "byteOffset" : 112008
        },
        {
            "buffer" : 0,
            "byteLength" : 264,
            "byteOffset" : 112584
        },
        {
            "buffer" : 0,
            "byteLength" : 864,
            "byteOffset" : 112848
        },
        {
            "buffer" : 0,
            "byteLength" : 864,
            "byteOffset" : 113712
        },
        {
            "buffer" : 0,
            "byteLength" : 576,
            "byteOffset" : 114576
        },
        {
            "buffer" : 0,
            "byteLength" : 264,
            "byteOffset" : 115152
        },
        {
            "buffer" : 0,
            "byteLength" : 864,
            "byteOffset" : 115416
        },
        {
            "buffer" : 0,
            "byteLength" : 864,
            "byteOffset" : 116280
        },
        {
            "buffer" : 0,
            "byteLength" : 576,
            "byteOffset" : 117144
        },
        {
            "buffer" : 0,
            "byteLength" : 1524,
            "byteOffset" : 117720
        },
        {
            "buffer" : 0,
            "byteLength" : 1524,
            "byteOffset" : 119244
        },
        {
            "buffer" : 0,
            "byteLength" : 1016,
            "byteOffset" : 120768
        },
        {
            "buffer" : 0,
            "byteLength" : 450,
            "byteOffset" : 121784
        },
        {
            "buffer" : 0,
            "byteLength" : 336,
            "byteOffset" : 122236
        },
        {
            "buffer" : 0,
            "byteLength" : 336,
            "byteOffset" : 122572
        },
        {
            "buffer" : 0,
            "byteLength" : 224,
            "byteOffset" : 122908
        },
        {
            "buffer" : 0,
            "byteLength" : 108,
            "byteOffset" : 123132
        }
    ],
    "buffers" : [
        {
            "byteLength" : 123240,
            "uri" : "data:application/octet-stream;base64,"
        }
    ]
}
