{
    "asset" : {
        "generator" : "Khronos glTF Blender I/O v1.8.19",
        "version" : "2.0"
    },
    "scene" : 0,
    "scenes" : [
        {
            "name" : "Scene",
            "nodes" : [
                0
            ]
        }
    ],
    "nodes" : [
        {
            "mesh" : 0,
            "name" : "PC",
            "rotation" : [
                0.6614122986793518,
                -0.24970079958438873,
                0.2520972490310669,
                0.6607801914215088
            ],
            "scale" : [
                0.002353762974962592,
                0.002353762974962592,
                0.002353762974962592
            ]
        }
    ],
    "materials" : [
        {
            "doubleSided" : true,
            "name" : "Mat_3.004",
            "pbrMetallicRoughness" : {
                "baseColorTexture" : {
                    "index" : 0
                },
                "metallicFactor" : 0,
                "roughnessFactor" : 0.5
            }
        }
    ],
    "meshes" : [
        {
            "name" : "PC.004",
            "primitives" : [
                {
                    "attributes" : {
                        "POSITION" : 0,
                        "NORMAL" : 1,
                        "TEXCOORD_0" : 2
                    },
                    "indices" : 3,
                    "material" : 0
                }
            ]
        }
    ],
    "textures" : [
        {
            "sampler" : 0,
            "source" : 0
        }
    ],
    "images" : [
        {
            "bufferView" : 4,
            "mimeType" : "image/jpeg",
            "name" : "10106_Computer Mouse_v1_Diffuse"
        }
    ],
    "accessors" : [
        {
            "bufferView" : 0,
            "componentType" : 5126,
            "count" : 3118,
            "max" : [
                32.74056625366211,
                121.7143783569336,
                172.59303283691406
            ],
            "min" : [
                -157.00901794433594,
                -83.1371078491211,
                -27.406967163085938
            ],
            "type" : "VEC3"
        },
        {
            "bufferView" : 1,
            "componentType" : 5126,
            "count" : 3118,
            "type" : "VEC3"
        },
        {
            "bufferView" : 2,
            "componentType" : 5126,
            "count" : 3118,
            "type" : "VEC2"
        },
        {
            "bufferView" : 3,
            "componentType" : 5123,
            "count" : 4680,
            "type" : "SCALAR"
        }
    ],
    "bufferViews" : [
        {
            "buffer" : 0,
            "byteLength" : 37416,
            "byteOffset" : 0
        },
        {
            "buffer" : 0,
            "byteLength" : 37416,
            "byteOffset" : 37416
        },
        {
            "buffer" : 0,
            "byteLength" : 24944,
            "byteOffset" : 74832
        },
        {
            "buffer" : 0,
            "byteLength" : 9360,
            "byteOffset" : 99776
        },
        {
            "buffer" : 0,
            "byteLength" : 341543,
            "byteOffset" : 109136
        }
    ],
    "samplers" : [
        {
            "magFilter" : 9729,
            "minFilter" : 9987
        }
    ],
    "buffers" : [
        {
            "byteLength" : 450680,
            "uri" : "data:application/octet-stream;base64,"
        }
    ]
}
