{
    "asset" : {
        "generator" : "Khronos glTF Blender I/O v1.8.19",
        "version" : "2.0"
    },
    "scene" : 0,
    "scenes" : [
        {
            "name" : "Scene",
            "nodes" : [
                0,
                1,
                2
            ]
        }
    ],
    "nodes" : [
        {
            "mesh" : 0,
            "name" : "Roundcube.001",
            "rotation" : [
                0,
                0.7071068286895752,
                0,
                0.7071068286895752
            ],
            "scale" : [
                0.10000000149011612,
                0.10000000149011612,
                0.10000000149011612
            ],
            "translation" : [
                0.09893438220024109,
                0.32690316438674927,
                0.1899433434009552
            ]
        },
        {
            "mesh" : 1,
            "name" : "Cube",
            "scale" : [
                0.10000000149011612,
                0.20000000298023224,
                0.30000001192092896
            ],
            "translation" : [
                0.03345552086830139,
                0,
                0.19323189556598663
            ]
        },
        {
            "mesh" : 2,
            "name" : "Cube.001",
            "rotation" : [
                0,
                0.7071068286895752,
                0,
                0.7071068286895752
            ],
            "scale" : [
                0.10000000149011612,
                0.10000000149011612,
                0.10000000149011612
            ],
            "translation" : [
                0.10966062545776367,
                0.3688766658306122,
                0.54740309715271
            ]
        }
    ],
    "materials" : [
        {
            "doubleSided" : true,
            "name" : "body resistor",
            "pbrMetallicRoughness" : {
                "baseColorFactor" : [
                    0.41093742847442627,
                    0.28930729627609253,
                    0.1318248212337494,
                    1
                ],
                "metallicFactor" : 0,
                "roughnessFactor" : 0.5
            }
        },
        {
            "doubleSided" : true,
            "name" : "kaki resistor",
            "pbrMetallicRoughness" : {
                "baseColorFactor" : [
                    0.4368998110294342,
                    0.43690022826194763,
                    0.4369005560874939,
                    1
                ],
                "metallicFactor" : 0,
                "roughnessFactor" : 0.26811593770980835
            }
        },
        {
            "doubleSided" : true,
            "name" : "nilai",
            "pbrMetallicRoughness" : {
                "baseColorFactor" : [
                    0.2422812283039093,
                    0.02121901698410511,
                    0.008023194968700409,
                    1
                ],
                "metallicFactor" : 0,
                "roughnessFactor" : 0.5
            }
        },
        {
            "doubleSided" : true,
            "name" : "nilai 2",
            "pbrMetallicRoughness" : {
                "baseColorFactor" : [
                    0.015208516269922256,
                    0.014443845488131046,
                    0.011612245813012123,
                    1
                ],
                "metallicFactor" : 0,
                "roughnessFactor" : 0.5
            }
        },
        {
            "doubleSided" : true,
            "name" : "pcb board",
            "pbrMetallicRoughness" : {
                "baseColorFactor" : [
                    0.6172067523002625,
                    0.3049874007701874,
                    0.20507878065109253,
                    1
                ],
                "metallicFactor" : 0.49275362491607666,
                "roughnessFactor" : 0.32608693838119507
            }
        },
        {
            "doubleSided" : true,
            "name" : "body kapasitor",
            "pbrMetallicRoughness" : {
                "baseColorFactor" : [
                    0.8000000715255737,
                    0.5903398394584656,
                    0.008418642915785313,
                    1
                ],
                "metallicFactor" : 0,
                "roughnessFactor" : 0.5
            }
        },
        {
            "doubleSided" : true,
            "name" : "kaki kapasitor",
            "pbrMetallicRoughness" : {
                "baseColorFactor" : [
                    0.5906181335449219,
                    0.5906185507774353,
                    0.5906189680099487,
                    1
                ],
                "metallicFactor" : 0,
                "roughnessFactor" : 0.2680000066757202
            }
        }
    ],
    "meshes" : [
        {
            "name" : "Roundcube.004",
            "primitives" : [
                {
                    "attributes" : {
                        "POSITION" : 0,
                        "NORMAL" : 1
                    },
                    "indices" : 2,
                    "material" : 0
                },
                {
                    "attributes" : {
                        "POSITION" : 3,
                        "NORMAL" : 4
                    },
                    "indices" : 5,
                    "material" : 1
                },
                {
                    "attributes" : {
                        "POSITION" : 6,
                        "NORMAL" : 7
                    },
                    "indices" : 8,
                    "material" : 2
                },
                {
                    "attributes" : {
                        "POSITION" : 9,
                        "NORMAL" : 10
                    },
                    "indices" : 11,
                    "material" : 3
                }
            ]
        },
        {
            "name" : "Cube.001",
            "primitives" : [
                {
                    "attributes" : {
                        "POSITION" : 12,
                        "NORMAL" : 13,
                        "TEXCOORD_0" : 14
                    },
                    "indices" : 15,
                    "material" : 4
                }
            ]
        },
        {
            "name" : "Cube.002",
            "primitives" : [
                {
                    "attributes" : {
                        "POSITION" : 16,
                        "NORMAL" : 17,
                        "TEXCOORD_0" : 18
                    },
                    "indices" : 19,
                    "material" : 5
                },
                {
                    "attributes" : {
                        "POSITION" : 20,
                        "NORMAL" : 21,
                        "TEXCOORD_0" : 22
                    },
                    "indices" : 23,
                    "material" : 6
                }
            ]
        }
    ],
    "accessors" : [
        {
            "bufferView" : 0,
            "componentType" : 5126,
            "count" : 386,
            "max" : [
                0.9052073955535889,
                0.9052073955535889,
                1.7799999713897705
            ],
            "min" : [
                -0.9052073955535889,
                -0.9052073955535889,
                -1.7799999713897705
            ],
            "type" : "VEC3"
        },
        {
            "bufferView" : 1,
            "componentType" : 5126,
            "count" : 386,
            "type" : "VEC3"
        },
        {
            "bufferView" : 2,
            "componentType" : 5123,
            "count" : 1782,
            "type" : "SCALAR"
        },
        {
            "bufferView" : 3,
            "componentType" : 5126,
            "count" : 48,
            "max" : [
                1.7267154817091068e-08,
                0.13189655542373657,
                2.640673875808716
            ],
            "min" : [
                -0.15000000596046448,
                -1.2662068605422974,
                -2.640673875808716
            ],
            "type" : "VEC3"
        },
        {
            "bufferView" : 4,
            "componentType" : 5126,
            "count" : 48,
            "type" : "VEC3"
        },
        {
            "bufferView" : 5,
            "componentType" : 5123,
            "count" : 252,
            "type" : "SCALAR"
        },
        {
            "bufferView" : 6,
            "componentType" : 5126,
            "count" : 96,
            "max" : [
                0.7945184111595154,
                0.7945184111595154,
                0.31620651483535767
            ],
            "min" : [
                -0.7945184111595154,
                -0.7945184111595154,
                -0.31620651483535767
            ],
            "type" : "VEC3"
        },
        {
            "bufferView" : 7,
            "componentType" : 5126,
            "count" : 96,
            "type" : "VEC3"
        },
        {
            "bufferView" : 8,
            "componentType" : 5123,
            "count" : 288,
            "type" : "SCALAR"
        },
        {
            "bufferView" : 9,
            "componentType" : 5126,
            "count" : 96,
            "max" : [
                0.7945184111595154,
                0.7945184111595154,
                0.6324129700660706
            ],
            "min" : [
                -0.7945184111595154,
                -0.7945184111595154,
                -0.6324129700660706
            ],
            "type" : "VEC3"
        },
        {
            "bufferView" : 10,
            "componentType" : 5126,
            "count" : 96,
            "type" : "VEC3"
        },
        {
            "bufferView" : 11,
            "componentType" : 5123,
            "count" : 288,
            "type" : "SCALAR"
        },
        {
            "bufferView" : 12,
            "componentType" : 5126,
            "count" : 24,
            "max" : [
                3.65853214263916,
                1,
                2.2441768646240234
            ],
            "min" : [
                -2.235624313354492,
                0.9083164930343628,
                -0.7540123462677002
            ],
            "type" : "VEC3"
        },
        {
            "bufferView" : 13,
            "componentType" : 5126,
            "count" : 24,
            "type" : "VEC3"
        },
        {
            "bufferView" : 14,
            "componentType" : 5126,
            "count" : 24,
            "type" : "VEC2"
        },
        {
            "bufferView" : 15,
            "componentType" : 5123,
            "count" : 36,
            "type" : "SCALAR"
        },
        {
            "bufferView" : 16,
            "componentType" : 5126,
            "count" : 248,
            "max" : [
                -0.5413644313812256,
                1,
                1
            ],
            "min" : [
                -1,
                -1.7191643714904785,
                -1
            ],
            "type" : "VEC3"
        },
        {
            "bufferView" : 17,
            "componentType" : 5126,
            "count" : 248,
            "type" : "VEC3"
        },
        {
            "bufferView" : 18,
            "componentType" : 5126,
            "count" : 248,
            "type" : "VEC2"
        },
        {
            "bufferView" : 19,
            "componentType" : 5123,
            "count" : 780,
            "type" : "SCALAR"
        },
        {
            "bufferView" : 20,
            "componentType" : 5126,
            "count" : 32,
            "max" : [
                -0.7248187065124512,
                -1,
                0.6000000238418579
            ],
            "min" : [
                -0.8165457844734192,
                -1.7191643714904785,
                -0.6000000238418579
            ],
            "type" : "VEC3"
        },
        {
            "bufferView" : 21,
            "componentType" : 5126,
            "count" : 32,
            "type" : "VEC3"
        },
        {
            "bufferView" : 22,
            "componentType" : 5126,
            "count" : 32,
            "type" : "VEC2"
        },
        {
            "bufferView" : 23,
            "componentType" : 5123,
            "count" : 48,
            "type" : "SCALAR"
        }
    ],
    "bufferViews" : [
        {
            "buffer" : 0,
            "byteLength" : 4632,
            "byteOffset" : 0
        },
        {
            "buffer" : 0,
            "byteLength" : 4632,
            "byteOffset" : 4632
        },
        {
            "buffer" : 0,
            "byteLength" : 3564,
            "byteOffset" : 9264
        },
        {
            "buffer" : 0,
            "byteLength" : 576,
            "byteOffset" : 12828
        },
        {
            "buffer" : 0,
            "byteLength" : 576,
            "byteOffset" : 13404
        },
        {
            "buffer" : 0,
            "byteLength" : 504,
            "byteOffset" : 13980
        },
        {
            "buffer" : 0,
            "byteLength" : 1152,
            "byteOffset" : 14484
        },
        {
            "buffer" : 0,
            "byteLength" : 1152,
            "byteOffset" : 15636
        },
        {
            "buffer" : 0,
            "byteLength" : 576,
            "byteOffset" : 16788
        },
        {
            "buffer" : 0,
            "byteLength" : 1152,
            "byteOffset" : 17364
        },
        {
            "buffer" : 0,
            "byteLength" : 1152,
            "byteOffset" : 18516
        },
        {
            "buffer" : 0,
            "byteLength" : 576,
            "byteOffset" : 19668
        },
        {
            "buffer" : 0,
            "byteLength" : 288,
            "byteOffset" : 20244
        },
        {
            "buffer" : 0,
            "byteLength" : 288,
            "byteOffset" : 20532
        },
        {
            "buffer" : 0,
            "byteLength" : 192,
            "byteOffset" : 20820
        },
        {
            "buffer" : 0,
            "byteLength" : 72,
            "byteOffset" : 21012
        },
        {
            "buffer" : 0,
            "byteLength" : 2976,
            "byteOffset" : 21084
        },
        {
            "buffer" : 0,
            "byteLength" : 2976,
            "byteOffset" : 24060
        },
        {
            "buffer" : 0,
            "byteLength" : 1984,
            "byteOffset" : 27036
        },
        {
            "buffer" : 0,
            "byteLength" : 1560,
            "byteOffset" : 29020
        },
        {
            "buffer" : 0,
            "byteLength" : 384,
            "byteOffset" : 30580
        },
        {
            "buffer" : 0,
            "byteLength" : 384,
            "byteOffset" : 30964
        },
        {
            "buffer" : 0,
            "byteLength" : 256,
            "byteOffset" : 31348
        },
        {
            "buffer" : 0,
            "byteLength" : 96,
            "byteOffset" : 31604
        }
    ],
    "buffers" : [
        {
            "byteLength" : 31700,
            "uri" : "data:application/octet-stream;base64,"
        }
    ]
}
